<svg id="Layer_1" data-name="Layer 1" xmlns="http://www.w3.org/2000/svg" viewBox="0 0 256.10016 256.08936"><title>spotify</title><path d="M0.00007,127.92622A127.929,127.929,0,0,1,128.25573.00022c72.14063,0.13161,128.029,59.01248,127.844,128.35254-0.18674,69.99976-57.11753,127.83462-128.26865,127.73647A128.07639,128.07639,0,0,1,.00007,127.92622ZM109.45488,67.69983c-5.05626.17574-9.91815,0.34674-14.78021,0.51317-5.39962.18483-10.77319,0.7088-16.1308,1.3605a179.58264,179.58264,0,0,0-20.06171,3.52357q-5.2429,1.25239-10.42756,2.74541a11.65427,11.65427,0,0,0-8.38572,10.42115A11.81829,11.81829,0,0,0,51.4458,99.1322a18.79657,18.79657,0,0,0,5.2835-.97766,168.70363,168.70363,0,0,1,29.032-5.40341c4.97125-.52155,9.96338-0.7701,14.95873-1.00135a232.09148,232.09148,0,0,1,28.37051.65281c6.11033,0.465,12.19053,1.24456,18.24727,2.21582a202.61173,202.61173,0,0,1,27.05027,6.16443,130.2578,130.2578,0,0,1,28.77017,12.31141,11.527,11.527,0,0,0,1.95818.99126,15.67321,15.67321,0,0,0,3.24683.93859,11.91131,11.91131,0,0,0,8.4635-21.50782,27.65583,27.65583,0,0,0-2.3676-1.48727,160.204,160.204,0,0,0-32.07673-13.738A237.48784,237.48784,0,0,0,126.651,68.35164C120.86722,67.97861,115.06419,67.90424,109.45488,67.69983Zm-2.18558,44.14158A184.45189,184.45189,0,0,0,76.40307,114.204a173.01981,173.01981,0,0,0-20.04836,4.515,12.89265,12.89265,0,0,0-3.79664,1.73893,9.75263,9.75263,0,0,0-3.90521,10.71953,9.9326,9.9326,0,0,0,12.36611,6.9333c1.22186-.32249,2.41927-0.73689,3.63915-1.06768a152.83475,152.83475,0,0,1,32.09934-5.06,178.51256,178.51256,0,0,1,32.51234,1.19153,171.8333,171.8333,0,0,1,23.86509,4.79053A141.78593,141.78593,0,0,1,187.852,152.48455c0.572,0.34026,1.1532.66851,1.74875,0.96487a9.27137,9.27137,0,0,0,6.013.89116,9.95257,9.95257,0,0,0,4.6918-17.37971,20.523,20.523,0,0,0-2.8123-1.89446,141.20075,141.20075,0,0,0-17.45535-8.8224,184.35157,184.35157,0,0,0-54.2371-13.5052A162.12963,162.12963,0,0,0,107.2693,111.84141Zm0.95037,41.69517a213.7757,213.7757,0,0,0-24.95637,1.63174c-7.6.95647-15.13406,2.31868-22.61274,3.97041a10.08344,10.08344,0,0,0-3.14647,1.20835,7.5686,7.5686,0,0,0-3.85154,7.75383,7.86127,7.86127,0,0,0,5.99683,6.72864,7.7352,7.7352,0,0,0,3.7538.02888c4.41135-1.01506,8.84039-1.932,13.30613-2.69163a191.13577,191.13577,0,0,1,22.8182-2.56982,149.25427,149.25427,0,0,1,37.77227,2.65449,118.78216,118.78216,0,0,1,37.1438,14.1584,22.69757,22.69757,0,0,0,2.45544,1.3314,7.36789,7.36789,0,0,0,5.2709.30388,7.91912,7.91912,0,0,0,2.97725-13.56035,15.77672,15.77672,0,0,0-2.63032-1.8022,129.91525,129.91525,0,0,0-28.05437-12.43181A156.691,156.691,0,0,0,108.21966,153.53657Z" transform="translate(0)"/></svg>